<?xml version="1.0" encoding="UTF-8"?>
<!DOCTYPE svg PUBLIC "-//W3C//DTD SVG 1.1//EN" "http://www.w3.org/Graphics/SVG/1.1/DTD/svg11.dtd">
<svg version="1.1" xmlns="http://www.w3.org/2000/svg" xmlns:xlink="http://www.w3.org/1999/xlink" x="0" y="0" width="816" height="184.5" viewBox="0, 0, 816, 184.5">
  <g id="Layer_1" transform="translate(-50.667, -134.833)">
    <path d="M50.667,138.333 L290.667,138.333 L290.667,319.333 L50.667,319.333 L50.667,138.333 z" fill="#2C3E50"/>
    <text transform="matrix(1, 0, 0, 1, 170.667, 161.833)">
      <tspan x="-35.328" y="5.5" font-family="HelveticaNeue-Bold" font-size="24" fill="#FFFFFF">books</tspan>
    </text>
    <text transform="matrix(1, 0, 0, 1, 105.791, 193.333)">
      <tspan x="-35.304" y="6.5" font-family="HelveticaNeue-Bold" font-size="18" fill="#FFFFFF">id</tspan>
    </text>
    <text transform="matrix(1, 0, 0, 1, 117.791, 223.333)">
      <tspan x="-47.304" y="6" font-family="HelveticaNeue-Bold" font-size="18" fill="#FFFFFF">title</tspan>
    </text>
    <text transform="matrix(1, 0, 0, 1, 117.791, 254.333)">
      <tspan x="-47.304" y="6" font-family="HelveticaNeue-Bold" font-size="18" fill="#FFFFFF">author_id</tspan>
    </text>
    <path d="M194.954,188.833 C194.954,189.661 194.283,190.333 193.454,190.333 C193.228,190.333 193.009,190.279 192.806,190.185 C192.9,190.388 192.954,190.607 192.954,190.833 C192.954,191.661 192.283,192.333 191.454,192.333 C190.626,192.333 189.954,191.661 189.954,190.833 C189.954,190.005 190.626,189.333 191.454,189.333 C191.681,189.333 191.9,189.388 192.103,189.482 C192.009,189.279 191.954,189.06 191.954,188.833 C191.954,188.005 192.626,187.333 193.454,187.333 C194.283,187.333 194.954,188.005 194.954,188.833 z M201.603,194.333 C201.603,194.107 199.423,192.052 199.134,191.763 C199.087,191.716 199.017,191.685 198.954,191.685 C198.775,191.685 198.056,192.404 198.056,192.583 C198.056,192.786 198.79,193.419 198.954,193.583 L198.204,194.333 L195.431,191.56 C196.04,190.74 196.454,189.74 196.454,188.708 C196.454,187.005 195.275,185.833 193.579,185.833 C191.017,185.833 188.454,188.396 188.454,190.958 C188.454,192.654 189.626,193.833 191.329,193.833 C192.361,193.833 193.361,193.419 194.181,192.81 L199.423,198.052 C199.564,198.193 199.759,198.271 199.954,198.271 C200.392,198.271 200.892,197.771 200.892,197.333 C200.892,197.138 200.814,196.943 200.673,196.802 L198.954,195.083 L199.704,194.333 C199.869,194.497 200.501,195.232 200.704,195.232 C200.884,195.232 201.603,194.513 201.603,194.333 z" fill="#18BC9C"/>
    <text transform="matrix(1, 0, 0, 1, 239.971, 193.333)">
      <tspan x="-30.876" y="6" font-family="LucidaGrande" font-size="18" fill="#FFFFFF">integer</tspan>
    </text>
    <text transform="matrix(1, 0, 0, 1, 239.971, 223.333)">
      <tspan x="-30.876" y="6" font-family="LucidaGrande" font-size="18" fill="#FFFFFF">string</tspan>
    </text>
    <text transform="matrix(1, 0, 0, 1, 239.971, 254.333)">
      <tspan x="-30.876" y="6" font-family="LucidaGrande" font-size="18" fill="#FFFFFF">integer</tspan>
    </text>
    <text transform="matrix(1, 0, 0, 1, 117.791, 286.333)">
      <tspan x="-47.304" y="6" font-family="HelveticaNeue-Bold" font-size="18" fill="#FFFFFF">subject_id</tspan>
    </text>
    <text transform="matrix(1, 0, 0, 1, 239.971, 286.333)">
      <tspan x="-30.876" y="6" font-family="LucidaGrande" font-size="18" fill="#FFFFFF">integer</tspan>
    </text>
    <path d="M291.167,254.333 L315.167,254.333 L315.167,191.833 L343.167,191.833" fill-opacity="0" stroke="#FFFFFF" stroke-width="2"/>
    <path d="M626.667,134.833 L866.667,134.833 L866.667,246.833 L626.667,246.833 L626.667,134.833 z" fill="#2C3E50"/>
    <text transform="matrix(1, 0, 0, 1, 746.667, 157.333)">
      <tspan x="-48.672" y="5.5" font-family="HelveticaNeue-Bold" font-size="24" fill="#FFFFFF">subjects</tspan>
    </text>
    <text transform="matrix(1, 0, 0, 1, 681.791, 188.833)">
      <tspan x="-35.304" y="6.5" font-family="HelveticaNeue-Bold" font-size="18" fill="#FFFFFF">id</tspan>
    </text>
    <text transform="matrix(1, 0, 0, 1, 693.791, 218.833)">
      <tspan x="-47.304" y="6" font-family="HelveticaNeue-Bold" font-size="18" fill="#FFFFFF">subject</tspan>
    </text>
    <path d="M770.955,184.333 C770.955,185.161 770.283,185.833 769.455,185.833 C769.228,185.833 769.009,185.779 768.806,185.685 C768.9,185.888 768.955,186.107 768.955,186.333 C768.955,187.161 768.283,187.833 767.455,187.833 C766.626,187.833 765.955,187.161 765.955,186.333 C765.955,185.505 766.626,184.833 767.455,184.833 C767.681,184.833 767.9,184.888 768.103,184.982 C768.009,184.779 767.955,184.56 767.955,184.333 C767.955,183.505 768.626,182.833 769.455,182.833 C770.283,182.833 770.955,183.505 770.955,184.333 z M777.603,189.833 C777.603,189.607 775.423,187.552 775.134,187.263 C775.087,187.216 775.017,187.185 774.955,187.185 C774.775,187.185 774.056,187.904 774.056,188.083 C774.056,188.286 774.79,188.919 774.955,189.083 L774.205,189.833 L771.431,187.06 C772.04,186.24 772.455,185.24 772.455,184.208 C772.455,182.505 771.275,181.333 769.58,181.333 C767.017,181.333 764.455,183.896 764.455,186.458 C764.455,188.154 765.626,189.333 767.33,189.333 C768.361,189.333 769.361,188.919 770.181,188.31 L775.423,193.552 C775.564,193.693 775.759,193.771 775.955,193.771 C776.392,193.771 776.892,193.271 776.892,192.833 C776.892,192.638 776.814,192.443 776.673,192.302 L774.955,190.583 L775.705,189.833 C775.869,189.997 776.501,190.732 776.705,190.732 C776.884,190.732 777.603,190.013 777.603,189.833 z" fill="#18BC9C"/>
    <text transform="matrix(1, 0, 0, 1, 815.971, 188.833)">
      <tspan x="-30.876" y="6" font-family="LucidaGrande" font-size="18" fill="#FFFFFF">integer</tspan>
    </text>
    <text transform="matrix(1, 0, 0, 1, 815.971, 218.833)">
      <tspan x="-30.876" y="6" font-family="LucidaGrande" font-size="18" fill="#FFFFFF">string</tspan>
    </text>
    <path d="M291.167,289.833 L603.167,289.833 L603.167,191.833 L627.167,191.833" fill-opacity="0" stroke="#FFFFFF" stroke-width="2"/>
    <path d="M342.667,134.833 L582.667,134.833 L582.667,279.833 L342.667,279.833 L342.667,134.833 z" fill="#2C3E50"/>
    <text transform="matrix(1, 0, 0, 1, 462.667, 158.333)">
      <tspan x="-43.788" y="5.5" font-family="HelveticaNeue-Bold" font-size="24" fill="#FFFFFF">authors</tspan>
    </text>
    <text transform="matrix(1, 0, 0, 1, 397.791, 189.833)">
      <tspan x="-35.304" y="6.5" font-family="HelveticaNeue-Bold" font-size="18" fill="#FFFFFF">id</tspan>
    </text>
    <text transform="matrix(1, 0, 0, 1, 409.791, 219.833)">
      <tspan x="-47.304" y="6" font-family="HelveticaNeue-Bold" font-size="18" fill="#FFFFFF">first_name</tspan>
    </text>
    <text transform="matrix(1, 0, 0, 1, 409.791, 250.833)">
      <tspan x="-47.304" y="6" font-family="HelveticaNeue-Bold" font-size="18" fill="#FFFFFF">last_name</tspan>
    </text>
    <path d="M486.954,185.333 C486.954,186.161 486.283,186.833 485.454,186.833 C485.228,186.833 485.009,186.779 484.806,186.685 C484.9,186.888 484.954,187.107 484.954,187.333 C484.954,188.161 484.283,188.833 483.454,188.833 C482.626,188.833 481.954,188.161 481.954,187.333 C481.954,186.505 482.626,185.833 483.454,185.833 C483.681,185.833 483.9,185.888 484.103,185.982 C484.009,185.779 483.954,185.56 483.954,185.333 C483.954,184.505 484.626,183.833 485.454,183.833 C486.283,183.833 486.954,184.505 486.954,185.333 z M493.603,190.833 C493.603,190.607 491.423,188.552 491.134,188.263 C491.087,188.216 491.017,188.185 490.954,188.185 C490.775,188.185 490.056,188.904 490.056,189.083 C490.056,189.286 490.79,189.919 490.954,190.083 L490.204,190.833 L487.431,188.06 C488.04,187.24 488.454,186.24 488.454,185.208 C488.454,183.505 487.275,182.333 485.579,182.333 C483.017,182.333 480.454,184.896 480.454,187.458 C480.454,189.154 481.626,190.333 483.329,190.333 C484.361,190.333 485.361,189.919 486.181,189.31 L491.423,194.552 C491.564,194.693 491.759,194.771 491.954,194.771 C492.392,194.771 492.892,194.271 492.892,193.833 C492.892,193.638 492.814,193.443 492.673,193.302 L490.954,191.583 L491.704,190.833 C491.869,190.997 492.501,191.732 492.704,191.732 C492.884,191.732 493.603,191.013 493.603,190.833 z" fill="#18BC9C"/>
    <text transform="matrix(1, 0, 0, 1, 531.971, 189.833)">
      <tspan x="-30.876" y="6" font-family="LucidaGrande" font-size="18" fill="#FFFFFF">integer</tspan>
    </text>
    <text transform="matrix(1, 0, 0, 1, 531.971, 219.833)">
      <tspan x="-30.876" y="6" font-family="LucidaGrande" font-size="18" fill="#FFFFFF">string</tspan>
    </text>
    <text transform="matrix(1, 0, 0, 1, 531.971, 250.833)">
      <tspan x="-30.876" y="6" font-family="LucidaGrande" font-size="18" fill="#FFFFFF">string</tspan>
    </text>
  </g>
</svg>
